<svg xmlns="http://www.w3.org/2000/svg" width="968" height="460" viewBox="-70.14012145996094 458.0013122558594 968 460">
  <polygon points="857.1217041015625,877.8060913085938 -17.532493591308594,874.6541748046875 -22.260353088378906,849.4389038085938 847.6659545898438,854.1668090820312" fill="#757575" opacity="1" stroke="none"/>
  <polygon points="855.5457153320312,863.6224975585938 -28.564167022705078,858.8946533203125 -30.140121459960938,843.1351318359375 857.1217041015625,849.4389038085938" fill="#BDBDBD" opacity="0.3" stroke="none"/>
  <polygon points="7.68276309967041,849.4389038085938 -3.3489112854003906,512.1848754882812 787.7797241210938,507.45703125 803.5392456054688,855.7427368164062" fill="#BDBDBD" opacity="1" stroke="none"/>
  <polygon points="6.106809616088867,518.4887084960938 17.138484954833984,849.4389038085938 790.931640625,854.1668090820312 775.172119140625,518.4887084960938" fill="#757575" opacity="1" stroke="none"/>
  <polygon points="395.3673095703125,512.1848754882812 346.51275634765625,515.3367919921875 341.784912109375,504.30511474609375 381.1837463378906,499.5772399902344" fill="#BDBDBD" opacity="0.4" stroke="none"/>
  <polygon points="401.671142578125,513.7608642578125 365.4241943359375,513.7608642578125 367.0001525878906,501.1531982421875 407.9749450683594,499.5772399902344" fill="#757575" opacity="0.4" stroke="none"/>
  <polygon points="360.69635009765625,501.1531982421875 360.69635009765625,512.1848754882812 393.7913818359375,512.1848754882812 393.7913818359375,498.0013122558594" fill="#757575" opacity="0.4" stroke="none"/>
  <polygon points="-3.3489112854003906,515.3367919921875 9.258716583251953,844.7110595703125 13.986577033996582,849.4389038085938 4.530856132507324,526.3684692382812" fill="#FFFFFF" opacity="0.2" stroke="none"/>
</svg>