<svg xmlns="http://www.w3.org/2000/svg" width="797" height="1322" viewBox="316.3141784667969 171.8331298828125 797 1322">
  <polygon points="385.8621826171875,237.90489196777344 370.2191162109375,1442.420654296875 1049.8232421875,1452.849365234375 1072.4188232421875,217.0474853515625" fill="#757575" opacity="1" stroke="none"/>
  <polygon points="410.1958312988281,222.2618408203125 380.6478271484375,1431.991943359375 1027.2276611328125,1438.9443359375 1056.7757568359375,211.8331298828125" fill="#BDBDBD" opacity="0.9" stroke="none"/>
  <polygon points="401.5052490234375,239.64300537109375 371.9572448730469,1437.206298828125 392.8146667480469,1437.206298828125 418.8864440917969,239.64300537109375" fill="#000000" opacity="0.1" stroke="none"/>
  <polygon points="371.9572448730469,1414.6107177734375 1055.03759765625,1428.515625 1053.2994384765625,1447.635009765625 356.3141784667969,1442.420654296875" fill="#000000" opacity="0.1" stroke="none"/>
  <polygon points="380.6478271484375,230.95242309570312 387.6003112792969,272.6672668457031 1068.9425048828125,260.50042724609375 1070.6806640625,222.2618408203125" fill="#757575" opacity="0.8" stroke="none"/>
  <polygon points="627.4605712890625,218.7855987548828 625.7224731445312,253.54795837402344 829.082275390625,248.33360290527344 818.653564453125,215.30935668945312" fill="#000000" opacity="0.3" stroke="none"/>
  <polygon points="630.9368286132812,239.64300537109375 829.082275390625,236.16677856445312 830.8203735351562,253.54795837402344 623.984375,258.7622985839844" fill="#000000" opacity="0.3" stroke="none"/>
  <polygon points="1060.251953125,594.2190551757812 1056.7757568359375,698.5061645507812 1065.46630859375,698.5061645507812 1068.9425048828125,606.3859252929688" fill="#BDBDBD" opacity="1" stroke="none"/>
  <polygon points="1058.5137939453125,707.1967163085938 1053.2994384765625,790.6264038085938 1065.46630859375,774.9833374023438 1068.9425048828125,712.4110717773438" fill="#BDBDBD" opacity="1" stroke="none"/>
</svg>