<svg xmlns="http://www.w3.org/2000/svg" width="1808" height="1762" viewBox="-668.7159423828125 197 1808 1762">
  <polygon points="-566.409912109375,541.3925170898438 1051.4693603515625,537.2388305664062 1099.2373046875,1916.2784423828125 -628.7159423828125,1918.355224609375" fill="#6A1B9A" opacity="1" stroke="none"/>
  <polygon points="-529.0263061523438,585.0067138671875 -558.1024780273438,1868.510498046875 1053.5462646484375,1878.894775390625 1012.0089111328125,564.2380981445312" fill="#9C27B0" opacity="1" stroke="none"/>
  <polygon points="252.18023681640625,471.4140319824219 149.4203643798828,601.8400268554688 136.7729949951172,597.0972900390625 230.04733276367188,450.862060546875" fill="#BDBDBD" opacity="1" stroke="none"/>
  <polygon points="149,593 231,473 237,485" fill="#9C27B0" opacity="0.4" stroke="none"/>
  <polygon points="252,479 152,603 136,591 227,449" fill="#BDBDBD" opacity="0.4" stroke="none"/>
  <polygon points="233,374 203,373 181,392 195,426 255,481 327,495 352,465 326,419 361,337 410,353 430,343 425,317 362,254 310,237 264,249 276,284 297,304" fill="#6A1B9A" opacity="1" stroke="none"/>
  <polygon points="206,383 189,395 201,416 260,473 328,483 336,463 258,443 224,404" fill="#CE93D8" opacity="0.4" stroke="none"/>
  <polygon points="249,380 303,314 313,317 272,402" fill="#CE93D8" opacity="0.4" stroke="none"/>
  <polygon points="414,344 400,345 309,306 284,283 273,251 283,247 298,281 333,296 398,331 413,329" fill="#CE93D8" opacity="0.4" stroke="none"/>
</svg>