<svg xmlns="http://www.w3.org/2000/svg" width="586" height="423" viewBox="68.9919662475586 111.76031494140625 586 423">
  <polygon points="301.46710205078125,482.2712707519531 449.1555480957031,479.22613525390625 493.309814453125,468.5682067871094 502.4451904296875,444.2072448730469 447.63299560546875,433.54931640625 304.5122375488281,435.0718688964844 246.6549072265625,462.47796630859375" fill="#210b3f" opacity="1" stroke="none"/>
  <polygon points="247.31442260742188,466.39947509765625 248.64491271972656,479.0390319824219 296.542236328125,494.3395690917969 448.2171630859375,489.6828918457031 496.114501953125,477.0433044433594 503.43212890625,451.76416015625 500.77117919921875,443.7812805175781 489.46209716796875,469.7256774902344 446.221435546875,475.71282958984375 300.53369140625,480.3695068359375" fill="#7a29e9" opacity="1" stroke="none"/>
  <polygon points="335.9166564941406,451.9378662109375 349.9436340332031,411.6103210449219 389.39453125,408.9802551269531 409.5583190917969,445.80108642578125" fill="#7a29e9" opacity="1" stroke="none"/>
  <polygon points="111.64456939697266,178.28634643554688 108.9919662475586,436.9150695800781 569.2184448242188,420.99945068359375 614.3126831054688,418.3468322753906 597.07080078125,151.76031494140625" fill="#210b3f" opacity="1" stroke="none"/>
  <polygon points="133.10324096679688,406.6001892089844 577.9384155273438,403.5809631347656 580.9576416015625,178.14413452148438 125.05192565917969,187.2018585205078" fill="#7a29e9" opacity="1" stroke="none"/>
</svg>